<svg width="22" height="22" viewBox="0 0 22 22" fill="none" xmlns="http://www.w3.org/2000/svg">
<path d="M16.1576 2.29175H5.84505C3.5213 2.29175 2.29297 3.52008 2.29297 5.84383V16.1563C2.29297 18.4801 3.5213 19.7084 5.84505 19.7084H16.1576C18.4813 19.7084 19.7096 18.4801 19.7096 16.1563V5.84383C19.7096 3.52008 18.4813 2.29175 16.1576 2.29175ZM18.793 16.1563C18.793 17.9539 17.9561 18.7917 16.1576 18.7917H5.84505C4.04655 18.7917 3.20964 17.9539 3.20964 16.1563V5.84383C3.20964 4.04625 4.04655 3.20841 5.84505 3.20841H16.1576C17.9561 3.20841 18.793 4.04625 18.793 5.84383V16.1563ZM13.7513 5.95842C12.5862 5.95842 11.918 6.62667 11.918 7.79175V14.2084C11.918 15.3735 12.5862 16.0417 13.7513 16.0417C14.9164 16.0417 15.5846 15.3735 15.5846 14.2084V7.79175C15.5846 6.62667 14.9164 5.95842 13.7513 5.95842ZM14.668 14.2084C14.668 14.8684 14.4113 15.1251 13.7513 15.1251C13.0913 15.1251 12.8346 14.8684 12.8346 14.2084V7.79175C12.8346 7.13175 13.0913 6.87508 13.7513 6.87508C14.4113 6.87508 14.668 7.13175 14.668 7.79175V14.2084ZM8.2513 9.62508C7.08622 9.62508 6.41797 10.2933 6.41797 11.4584V14.2084C6.41797 15.3735 7.08622 16.0417 8.2513 16.0417C9.41639 16.0417 10.0846 15.3735 10.0846 14.2084V11.4584C10.0846 10.2933 9.41639 9.62508 8.2513 9.62508ZM9.16797 14.2084C9.16797 14.8684 8.9113 15.1251 8.2513 15.1251C7.5913 15.1251 7.33464 14.8684 7.33464 14.2084V11.4584C7.33464 10.7984 7.5913 10.5417 8.2513 10.5417C8.9113 10.5417 9.16797 10.7984 9.16797 11.4584V14.2084Z" fill="#718096"/>
</svg>
