<svg width="256" height="96" viewBox="0 0 256 96" fill="none" xmlns="http://www.w3.org/2000/svg">
<path d="M66.8418 56.258C67.8036 59.7454 70.4118 61.4891 74.6663 61.4891C77.404 61.4891 79.4757 60.5616 80.8815 58.7066L86.6528 62.0455C83.9152 66.0152 79.8827 68 74.5553 68C69.9679 68 66.2868 66.6088 63.5122 63.8263C60.7375 61.0439 59.3502 57.538 59.3502 53.3086C59.3502 49.1164 60.719 45.6291 63.4567 42.8466C66.1943 40.0271 69.7089 38.6173 74.0004 38.6173C78.0699 38.6173 81.418 40.0271 84.0447 42.8466C86.7083 45.6662 88.0402 49.1535 88.0402 53.3086C88.0402 54.2361 87.9477 55.2193 87.7627 56.258H66.8418ZM66.7308 50.6931H80.8815C80.4746 48.8011 79.6237 47.3913 78.3289 46.4638C77.071 45.5363 75.6282 45.0726 74.0004 45.0726C72.0766 45.0726 70.4858 45.5734 69.228 46.5751C67.9701 47.5397 67.1377 48.9124 66.7308 50.6931Z" fill="#111827"/>
<path d="M110.613 39.3964H117.772V67.2209H110.613V63.9376C108.468 66.6459 105.452 68 101.568 68C97.8684 68 94.6868 66.5902 92.0231 63.7707C89.3964 60.914 88.0831 57.4267 88.0831 53.3086C88.0831 49.1906 89.3964 45.7218 92.0231 42.9023C94.6868 40.0456 97.8684 38.6173 101.568 38.6173C105.452 38.6173 108.468 39.9714 110.613 42.6797V39.3964ZM97.406 58.9849C98.8488 60.4317 100.68 61.1552 102.9 61.1552C105.12 61.1552 106.951 60.4317 108.394 58.9849C109.873 57.5009 110.613 55.6088 110.613 53.3086C110.613 51.0085 109.873 49.135 108.394 47.6881C106.951 46.2041 105.12 45.4621 102.9 45.4621C100.68 45.4621 98.8488 46.2041 97.406 47.6881C95.9631 49.135 95.2417 51.0085 95.2417 53.3086C95.2417 55.6088 95.9631 57.5009 97.406 58.9849Z" fill="#111827"/>
<path d="M136.84 46.2969H130.569V57.8719C130.569 58.8365 130.809 59.5413 131.29 59.9865C131.771 60.4317 132.474 60.6914 133.399 60.7656C134.324 60.8027 135.471 60.7842 136.84 60.71V67.2209C131.919 67.7774 128.442 67.3137 126.407 65.8297C124.409 64.3457 123.41 61.6931 123.41 57.8719V46.2969H118.582V39.3964H123.41V33.7758L130.569 31.6055V39.3964H136.84V46.2969Z" fill="#111827"/>
<path d="M45.1485 38.6173C48.8851 38.6173 52.0667 40.0456 54.6934 42.9023C57.357 45.7218 58.6889 49.1906 58.6889 53.3086C58.6889 57.4267 57.357 60.914 54.6934 63.7707C52.0667 66.5902 48.8851 68 45.1485 68C41.264 68 38.2674 66.6459 36.1586 63.9376V67.2209H29V28.2666H36.1586V42.6797C38.2674 39.9714 41.264 38.6173 45.1485 38.6173ZM38.3229 58.9849C39.7657 60.4317 41.597 61.1552 43.8167 61.1552C46.0364 61.1552 47.8677 60.4317 49.3105 58.9849C50.7903 57.5009 51.5303 55.6088 51.5303 53.3086C51.5303 51.0085 50.7903 49.135 49.3105 47.6881C47.8677 46.2041 46.0364 45.4621 43.8167 45.4621C41.597 45.4621 39.7657 46.2041 38.3229 47.6881C36.88 49.135 36.1586 51.0085 36.1586 53.3086C36.1586 55.6088 36.88 57.5009 38.3229 58.9849Z" fill="url(#paint0_linear_2330_924)"/>
<path fill-rule="evenodd" clip-rule="evenodd" d="M132.859 28.1555L135.228 33.7449C135.412 34.1815 135.974 34.2948 136.433 34.1636C136.893 34.0337 137.206 33.6477 137.236 33.1737L137.997 21.3372C138.026 20.8763 137.823 20.4682 137.435 20.2124C137.05 19.9579 136.59 19.9312 136.174 20.1372L125.484 25.4338C125.055 25.6456 124.819 26.0823 124.877 26.5536C124.933 27.0254 125.257 27.4931 125.734 27.4923L131.842 27.4859C132.296 27.4847 132.684 27.7407 132.859 28.1555Z" fill="#FF0053"/>
<path d="M145.704 68.18C147.972 68.18 149.748 66.68 150.048 64.448H148.116C147.9 65.684 146.952 66.548 145.728 66.548C144.252 66.548 143.256 65.372 143.256 63.68C143.256 62 144.252 60.836 145.728 60.836C146.952 60.836 147.912 61.688 148.116 62.924H150.048C149.748 60.716 147.972 59.204 145.704 59.204C143.28 59.204 141.384 61.16 141.384 63.68C141.384 66.212 143.28 68.18 145.704 68.18ZM153.146 68V64.952H154.286L156.23 68H158.402L156.182 64.676C157.406 64.268 158.126 63.344 158.126 62.18C158.126 60.392 156.866 59.384 154.694 59.384H151.322V68H153.146ZM153.146 60.896H154.61C155.714 60.896 156.302 61.328 156.302 62.18C156.302 63.02 155.714 63.452 154.61 63.452H153.146V60.896ZM163.448 68H164.972L167.252 62.228V68H168.908V59.384H166.724L164.216 65.768L161.72 59.384H159.536V68H161.192V62.276L163.448 68Z" fill="#718096"/>
<defs>
<linearGradient id="paint0_linear_2330_924" x1="66.2417" y1="64.8421" x2="66.2417" y2="20" gradientUnits="userSpaceOnUse">
<stop stop-color="#4D2CE3"/>
<stop offset="1" stop-color="#785AFF"/>
</linearGradient>
</defs>
</svg>
