<svg width="24" height="24" viewBox="0 0 24 24" fill="none" xmlns="http://www.w3.org/2000/svg">
<path d="M13.9914 3.19943L13.9916 3.19962L19.7516 7.22955C19.7516 7.22957 19.7516 7.2296 19.7516 7.22962C20.2208 7.55809 20.6651 8.09665 20.9925 8.72383C21.32 9.35104 21.5083 10.0242 21.5083 10.5999V17.3799C21.5083 19.6538 19.6621 21.4999 17.3883 21.4999H6.60828C4.33583 21.4999 2.48828 19.6452 2.48828 17.3699V10.4699C2.48828 9.9355 2.65867 9.29642 2.95686 8.6908C3.25491 8.08545 3.65935 7.55682 4.0858 7.22419L4.0859 7.2241L9.09453 3.31518C9.09475 3.315 9.09498 3.31483 9.0952 3.31465C10.432 2.27937 12.6011 2.22535 13.9914 3.19943ZM11.9983 19.2499C12.6844 19.2499 13.2483 18.6861 13.2483 17.9999V14.9999C13.2483 14.3138 12.6844 13.7499 11.9983 13.7499C11.3121 13.7499 10.7483 14.3138 10.7483 14.9999V17.9999C10.7483 18.6861 11.3121 19.2499 11.9983 19.2499Z" stroke="#718096"/>
</svg>
